<?xml version="1.0" encoding="UTF-8" standalone="no"?> <svg id="line" xmlns="http://www.w3.org/2000/svg" viewBox="0 0 64 64"><title>1</title><path d="M57.1499,45.64874V42.174a2.99365,2.99365,0,0,0,2.74024-2.97375V36.07031a3.684,3.684,0,0,0-.82419-2.168C56.29284,31.334,33.39621,10.12437,33.39551,10.124a2.82562,2.82562,0,0,0-3.88623.042L4.71777,34.02441c-1.036,1.09594-.655,3.795-.71778,5.17581a3.001,3.001,0,0,0,2.96,2.996v3.45471a3.84437,3.84437,0,0,0-2.85007,3.70949l0,1.40916A3.85934,3.85934,0,0,0,7.96,54.62988h3.68018a1.00009,1.00009,0,0,0,0-2H7.96a1.85769,1.85769,0,0,1-1.8501-1.86035c.0266-.85983-.18917-2.08575.55423-2.72946A1.82631,1.82631,0,0,1,7.96,47.5H15.6156l2.85754,4.2373a1.00634,1.00634,0,0,0,1.61866.05467l3.45361-4.44346,2.96,4.3927a1.00661,1.00661,0,0,0,1.61817.05564L31.46338,47.5H38.48a1.00011,1.00011,0,0,0,0-2h-5.462l2.56482-3.2998H55.1499V45.5H42.48a1.0001,1.0001,0,0,0,0,2H56.1499A1.85769,1.85769,0,0,1,58,49.36035v1.40918a1.85769,1.85769,0,0,1-1.8501,1.86035H15.64014a1.00012,1.00012,0,0,0,0,2H56.1499A3.85934,3.85934,0,0,0,60,50.76953V49.36035A3.8532,3.8532,0,0,0,57.1499,45.64874Zm-11.158-21.13055,2.4422,2.26214A1.73587,1.73587,0,1,1,45.99188,24.51819ZM6,39.2002V36.07031a1.001,1.001,0,0,1,1-1H44.8501a1.00011,1.00011,0,0,0,0-2H20.28918a2.82059,2.82059,0,1,0-5.63178,0H8.59375L30.90039,11.60352a.82742.82742,0,0,1,1.13721-.01075L44.49908,23.13544a3.73457,3.73457,0,1,0,5.42621,5.02618l5.29944,4.90869H48.8501a1,1,0,0,0,0,2h8.04a1.001,1.001,0,0,1,1,1V39.2002a1.001,1.001,0,0,1-1,1H7A1.001,1.001,0,0,1,6,39.2002ZM16.644,32.916a.82345.82345,0,1,1,1.63392.15433l-1.60743,0A.81185.81185,0,0,1,16.644,32.916ZM8.96,45.5V42.2002h3.0816L14.26685,45.5Zm10.3999,3.97559L14.45374,42.2002H25.01447Zm8.03272.0039L24.83685,45.687l2.71-3.48675h5.50268Z"/><path d="M36.65283,19.53137a.91455.91455,0,0,0,0,1.82892A.91455.91455,0,0,0,36.65283,19.53137Z"/><path d="M38.48175,28.76459a.91455.91455,0,0,0,0,1.82891A.91455.91455,0,0,0,38.48175,28.76459Z"/><path d="M27.06378,26.93561a.91458.91458,0,0,0,0,1.829A.91458.91458,0,0,0,27.06378,26.93561Z"/><path d="M27.85254,16.70215a2.82928,2.82928,0,0,0,.00008,5.6582A2.82928,2.82928,0,0,0,27.85254,16.70215Zm0,3.6582a.82927.82927,0,0,1,0-1.6582A.82927.82927,0,0,1,27.85254,20.36035Z"/></svg>